<svg aria-hidden="true" style="position: absolute; width: 0; height: 0; overflow: hidden;" version="1.1" xmlns="http://www.w3.org/2000/svg" xmlns:xlink="http://www.w3.org/1999/xlink">
<defs>
<symbol id="icon-MMenu" viewBox="0 0 44 32">
<path fill="#fff" style="fill: var(--color1, #fff)" d="M43.556 16c0 0.471-0.187 0.924-0.521 1.257s-0.786 0.521-1.257 0.521h-39.111c-0.471 0-0.924-0.187-1.257-0.521s-0.521-0.786-0.521-1.257c0-0.472 0.187-0.924 0.521-1.257s0.786-0.521 1.257-0.521h39.111c0.471 0 0.924 0.187 1.257 0.521s0.521 0.786 0.521 1.257zM2.667 3.556h39.111c0.471 0 0.924-0.187 1.257-0.521s0.521-0.786 0.521-1.257c0-0.472-0.187-0.924-0.521-1.257s-0.786-0.521-1.257-0.521h-39.111c-0.471 0-0.924 0.187-1.257 0.521s-0.521 0.786-0.521 1.257c0 0.472 0.187 0.924 0.521 1.257s0.786 0.521 1.257 0.521zM41.778 28.444h-39.111c-0.471 0-0.924 0.187-1.257 0.521s-0.521 0.786-0.521 1.257c0 0.471 0.187 0.924 0.521 1.257s0.786 0.521 1.257 0.521h39.111c0.471 0 0.924-0.187 1.257-0.521s0.521-0.786 0.521-1.257c0-0.471-0.187-0.924-0.521-1.257s-0.786-0.521-1.257-0.521z"></path>
</symbol>
<symbol id="icon-AIstar_youtube" viewBox="0 0 39 32">
<path fill="#fff" style="fill: var(--color1, #fff)" d="M37.277 6.253c-0.157-0.614-0.458-1.183-0.878-1.658s-0.947-0.844-1.537-1.075c-5.713-2.207-14.807-2.187-15.307-2.187s-9.593-0.020-15.307 2.187c-0.59 0.232-1.117 0.6-1.537 1.075s-0.721 1.044-0.878 1.658c-0.432 1.663-0.945 4.703-0.945 9.747s0.513 8.083 0.945 9.747c0.157 0.615 0.458 1.183 0.878 1.659s0.947 0.844 1.538 1.076c5.473 2.112 14.040 2.185 15.197 2.185h0.22c1.157 0 9.728-0.073 15.197-2.185 0.591-0.232 1.117-0.601 1.537-1.076s0.721-1.044 0.877-1.659c0.432-1.667 0.945-4.703 0.945-9.747s-0.513-8.083-0.945-9.747zM24.987 17.087l-6.667 4.667c-0.199 0.14-0.433 0.222-0.676 0.238s-0.486-0.034-0.702-0.146-0.398-0.281-0.525-0.489c-0.127-0.208-0.195-0.446-0.196-0.69v-9.333c0-0.244 0.067-0.483 0.194-0.692s0.308-0.378 0.524-0.491c0.216-0.113 0.459-0.164 0.703-0.148s0.478 0.098 0.677 0.238l6.667 4.667c0.175 0.123 0.319 0.286 0.417 0.476s0.15 0.401 0.15 0.615c0 0.214-0.052 0.425-0.15 0.615s-0.242 0.353-0.417 0.476v-0.005z"></path>
</symbol>
<symbol id="icon-AIstar_insta" viewBox="0 0 32 32">
<path fill="#fff" style="fill: var(--color1, #fff)" d="M23.2 0.4h-14.4c-2.227 0.002-4.362 0.888-5.937 2.463s-2.461 3.71-2.463 5.937v14.4c0.002 2.227 0.888 4.362 2.463 5.937s3.71 2.46 5.937 2.463h14.4c2.227-0.002 4.362-0.888 5.937-2.463s2.46-3.71 2.463-5.937v-14.4c-0.002-2.227-0.888-4.362-2.463-5.937s-3.71-2.461-5.937-2.463zM16 23.2c-1.424 0-2.816-0.422-4-1.213s-2.107-1.916-2.652-3.231c-0.545-1.316-0.688-2.763-0.41-4.16s0.964-2.68 1.97-3.687c1.007-1.007 2.29-1.693 3.687-1.97s2.844-0.135 4.16 0.41c1.316 0.545 2.44 1.468 3.231 2.652s1.213 2.576 1.213 4c-0.002 1.909-0.761 3.739-2.111 5.089s-3.18 2.109-5.089 2.111zM25 8.8c-0.356 0-0.704-0.106-1-0.303s-0.527-0.479-0.663-0.808c-0.136-0.329-0.172-0.691-0.102-1.040s0.241-0.67 0.493-0.922c0.252-0.252 0.572-0.423 0.922-0.493s0.711-0.034 1.040 0.102c0.329 0.136 0.61 0.367 0.808 0.663s0.303 0.644 0.303 1c0 0.477-0.19 0.935-0.527 1.273s-0.795 0.527-1.273 0.527zM20.8 16c0 0.949-0.281 1.877-0.809 2.667s-1.277 1.405-2.154 1.768c-0.877 0.363-1.842 0.458-2.773 0.273s-1.786-0.642-2.458-1.314c-0.671-0.671-1.128-1.527-1.314-2.458s-0.090-1.896 0.273-2.773 0.979-1.627 1.768-2.154c0.789-0.527 1.717-0.809 2.667-0.809 1.273 0 2.494 0.506 3.394 1.406s1.406 2.121 1.406 3.394z"></path>
</symbol>
<symbol id="icon-AIstar_x" viewBox="0 0 32 32">
<path fill="#fff" style="fill: var(--color1, #fff)" d="M30.5 31.308c-0.115 0.209-0.284 0.384-0.489 0.505s-0.439 0.186-0.678 0.186h-8c-0.224 0-0.445-0.057-0.642-0.165s-0.363-0.264-0.483-0.454l-6.748-10.605-9.807 10.787c-0.239 0.257-0.57 0.409-0.92 0.424s-0.693-0.11-0.952-0.345c-0.26-0.236-0.416-0.565-0.435-0.915s0.101-0.694 0.334-0.956l10.295-11.333-10.433-16.387c-0.129-0.202-0.2-0.434-0.208-0.673s0.049-0.476 0.164-0.685c0.115-0.21 0.284-0.384 0.49-0.506s0.44-0.186 0.68-0.186h8c0.224 0 0.445 0.057 0.642 0.165s0.363 0.264 0.483 0.453l6.748 10.605 9.807-10.787c0.239-0.257 0.57-0.409 0.92-0.424s0.693 0.109 0.953 0.345c0.26 0.236 0.416 0.565 0.435 0.915s-0.101 0.694-0.334 0.956l-10.295 11.325 10.433 16.397c0.128 0.202 0.199 0.434 0.206 0.673s-0.050 0.475-0.165 0.684z"></path>
</symbol>
</defs>
</svg>
